# xmcd
#
# Track frame offsets: 
#        182
#        15737
#        32290
#        47457
#        63440
#        79462
#        95365
#        110577
#        131012
#        156332
#        172080
#        190082
#
# Disc length: 2755 seconds
#
# Revision: 7
# Processed by: cddbd v1.5.2PL0 Copyright (c) Steve Scherf et al.
# Submitted via: ExactAudioCopyFreeDBPlugin 1.0
#
DISCID=990ac10c
DTITLE=Various Artist - Didn't It Blow Your Mind!:  Soul Hits of the 
DTITLE='70s [Rhino series]
DYEAR=1995
DGENRE=SMB
TTITLE0=B.T. Express - Give it What You Got
TTITLE1=Harold Melvin and The Blue Notes - Wake Up Everybody
TTITLE2=Rufus featuring Chaka Khan - Sweet Thing
TTITLE3=The Brothers Johnson - I'll Be Good to You
TTITLE4=The Manhattans - Kiss and Say Goodbye
TTITLE5=Lou Rawls - You'll Never Find Another Love Like Mine
TTITLE6=The Ohio Players - Who'd She Coo
TTITLE7=Norman Connors - You Are My Starship
TTITLE8=Brick - Dazz
TTITLE9=William Bell - Tryin' to Love Two
TTITLE10=Rose Royce - I Wanna Get Next to You
TTITLE11=The Emotions - Best of My Love
EXTD=YEAR: 1975-77  ID3G:  42
EXTT0=
EXTT1=
EXTT2=
EXTT3=
EXTT4=
EXTT5=
EXTT6=
EXTT7=
EXTT8=
EXTT9=
EXTT10=
EXTT11=
PLAYORDER=
